HIERARCHY
ROOT Hips
{
 OFFSET 0.000000 0.000000 0.000000
 CHANNELS 6 Xposition Yposition Zposition Yrotation Xrotation Zrotation
 JOINT Chest
 {
  OFFSET 0.000000 9.585900 0.002600
  CHANNELS 3 Yrotation Xrotation Zrotation
  JOINT Chest2
  {
   OFFSET 0.000000 9.601200 -0.005300
   CHANNELS 3 Yrotation Xrotation Zrotation
   JOINT Chest3
   {
    OFFSET 0.000000 9.561800 0.000000
    CHANNELS 3 Yrotation Xrotation Zrotation
    JOINT Chest4
    {
     OFFSET 0.000000 9.552100 0.000000
     CHANNELS 3 Yrotation Xrotation Zrotation
     JOINT Neck
     {
      OFFSET 0.000000 14.453000 0.000000
      CHANNELS 3 Yrotation Xrotation Zrotation
      JOINT Head
      {
       OFFSET 0.000000 8.936500 -0.011300
       CHANNELS 3 Yrotation Xrotation Zrotation
       End Site
       {
        OFFSET 0.000000 17.073600 -0.006000
       }
      }
     }
     JOINT RightCollar
     {
      OFFSET -2.921100 9.558500 0.000000
      CHANNELS 3 Yrotation Xrotation Zrotation
      JOINT RightShoulder
      {
       OFFSET -13.519700 0.000000 0.000000
       CHANNELS 3 Yrotation Xrotation Zrotation
       JOINT RightElbow
       {
        OFFSET 0.000000 -29.696600 0.000000
        CHANNELS 3 Yrotation Xrotation Zrotation
        JOINT RightWrist
        {
         OFFSET 0.000000 -24.004700 0.000000
         CHANNELS 3 Yrotation Xrotation Zrotation
         End Site
         {
          OFFSET 0.000000 -17.728500 0.000000
         }
        }
       }
      }
     }
     JOINT LeftCollar
     {
      OFFSET 2.921100 9.558500 0.000000
      CHANNELS 3 Yrotation Xrotation Zrotation
      JOINT LeftShoulder
      {
       OFFSET 13.519700 0.000000 0.000000
       CHANNELS 3 Yrotation Xrotation Zrotation
       JOINT LeftElbow
       {
        OFFSET 0.000000 -29.696600 0.000000
        CHANNELS 3 Yrotation Xrotation Zrotation
        JOINT LeftWrist
        {
         OFFSET 0.000000 -24.004700 0.000000
         CHANNELS 3 Yrotation Xrotation Zrotation
         End Site
         {
          OFFSET 0.000000 -17.728500 0.000000
         }
        }
       }
      }
     }
    }
   }
  }
 }
 JOINT RightHip
 {
  OFFSET -7.771700 -0.012900 -0.001300
  CHANNELS 3 Yrotation Xrotation Zrotation
  JOINT RightKnee
  {
   OFFSET 0.000000 -40.869800 0.001200
   CHANNELS 3 Yrotation Xrotation Zrotation
   JOINT RightAnkle
   {
    OFFSET 0.000000 -39.717900 0.002100
    CHANNELS 3 Yrotation Xrotation Zrotation
    JOINT RightToe
    {
     OFFSET 0.000000 -4.965400 11.033500
     CHANNELS 3 Yrotation Xrotation Zrotation
     End Site
     {
      OFFSET 0.000000 -1.423100 5.872300
     }
    }
   }
  }
 }
 JOINT LeftHip
 {
  OFFSET 7.771700 -0.012900 -0.001300
  CHANNELS 3 Yrotation Xrotation Zrotation
  JOINT LeftKnee
  {
   OFFSET 0.000000 -40.869800 0.001200
   CHANNELS 3 Yrotation Xrotation Zrotation
   JOINT LeftAnkle
   {
    OFFSET 0.000000 -39.717900 0.002100
    CHANNELS 3 Yrotation Xrotation Zrotation
    JOINT LeftToe
    {
     OFFSET 0.000000 -4.965400 11.033500
     CHANNELS 3 Yrotation Xrotation Zrotation
     End Site
     {
      OFFSET 0.000000 -1.423100 5.872300
     }
    }
   }
  }
 }
}
MOTION
Frames: 5
Frame Time: 0.008333
0.000000 85.388000 0.000000 0.000000 -5.767877 0.000000 0.000000 11.653817 0.000000 0.000000 -5.885947 0.000000 0.000000 -0.000000 0.000000 0.000000 -0.000000 0.000000 0.000000 12.528835 0.000000 0.000000 0.711642 0.000000 0.000000 -0.000000 0.000000 0.000000 0.000000 -90.000000 0.000000 -2.309062 0.000000 0.000000 2.309062 0.000000 0.000000 -0.000000 0.000000 0.000000 -0.000000 90.000000 0.000000 -2.309062 0.000000 0.000000 2.309062 0.000000 0.000000 8.520406 0.000000 0.000000 1.905762 0.000000 -0.000000 -4.658285 0.000000 0.000000 -0.000000 0.000000 0.000000 8.520406 0.000000 0.000000 1.905762 0.000000 -0.000000 -4.658285 0.000000 0.000000 -0.000000 0.000000
-73.695175 50.494691 -4.949273 162.784089 -11.153929 -0.430318 1.280400 9.247219 1.340301 -0.028381 0.584976 0.041491 0.162116 0.792108 0.027573 0.866040 8.534266 0.494099 4.274405 16.986223 -0.538561 8.088476 -4.103009 -2.455249 5.250160 3.263846 0.795843 2.055601 -17.094467 -10.735999 41.916694 -44.595768 -21.998108 3.423738 3.792908 -32.337195 -6.412753 -1.879767 -2.779860 2.461252 -20.877975 5.358999 -42.647438 -34.056300 26.644578 -1.888761 -2.099214 29.930511 -6.163735 -69.310462 1.578389 -120.114640 81.870312 -119.721158 -2.621004 -15.390282 0.617288 -0.080728 0.934568 -0.103658 -4.060450 -73.301517 24.124101 116.081035 79.386369 111.950451 -15.881571 -20.194821 2.058810 -0.747665 -1.066261 -0.255896
-73.706475 50.482552 -4.932364 162.794958 -11.135970 -0.427586 1.341309 9.151216 1.335397 0.032178 0.519628 0.027140 0.108396 0.847794 0.039563 0.909638 8.504149 0.478973 4.258715 17.034245 -0.555369 8.062793 -4.013633 -2.477667 5.197209 3.296455 0.862485 1.776373 -16.955949 -10.253269 41.843663 -44.555059 -22.437462 3.362425 3.432380 -32.381367 -6.343072 -1.821206 -2.815379 2.872455 -20.801057 5.146598 -42.366198 -34.523654 26.225470 -1.891584 -2.020590 29.840625 -6.072096 -69.350481 1.429850 -120.217821 81.887978 -119.719260 -2.631227 -15.360996 0.533807 -0.031354 0.935742 -0.070022 -4.014427 -73.334071 24.065371 116.009390 79.388377 111.870688 -15.855296 -20.209013 2.063093 -0.774697 -1.038908 -0.266901
-73.719453 50.470838 -4.921920 162.830225 -11.157802 -0.407899 1.374115 9.096105 1.313630 0.053667 0.496210 0.023366 0.093321 0.861814 0.040855 0.951524 8.474409 0.466167 4.243832 17.089429 -0.577622 8.039985 -3.910671 -2.510007 5.150375 3.331404 0.924525 1.523966 -16.824092 -9.785705 41.671665 -44.520943 -22.816925 3.278851 3.063587 -32.410680 -6.271817 -1.771673 -2.837426 3.240684 -20.698806 4.970392 -42.013991 -35.027398 25.703405 -1.907082 -1.918839 29.717038 -5.947227 -69.354158 1.228920 -120.437325 81.906675 -119.871548 -2.629822 -15.336542 0.515384 -0.031199 0.942333 -0.063407 -3.842711 -73.330857 23.857834 115.902019 79.388077 111.771698 -15.831440 -20.226544 2.062343 -0.796979 -1.005785 -0.260961
-73.731979 50.459556 -4.914185 162.864646 -11.193001 -0.381488 1.407614 9.054576 1.291170 0.055898 0.492797 0.022504 0.097113 0.856016 0.039381 0.991397 8.445200 0.455427 4.230435 17.150959 -0.606104 8.021679 -3.795320 -2.553944 5.107245 3.370727 0.980729 1.299479 -16.704392 -9.338196 41.386945 -44.506618 -23.120189 3.179143 2.713209 -32.419814 -6.204981 -1.727148 -2.843803 3.561918 -20.570163 4.825633 -41.611049 -35.561984 25.108005 -1.929658 -1.792304 29.566997 -5.830258 -69.342746 1.040060 -120.660330 81.924387 -120.054687 -2.604030 -15.323667 0.501916 -0.050844 0.944059 -0.067118 -3.596076 -73.319063 23.585731 115.794260 79.389748 111.687331 -15.835507 -20.239547 2.066362 -0.782004 -0.979123 -0.249562
